<svg width="32" height="32" viewBox="0 0 32 32" fill="none" xmlns="http://www.w3.org/2000/svg">
<path d="M26.4063 22.6667C27.1397 22.6667 27.7397 22.0667 27.7397 21.3333C27.7397 20.6 27.1397 20 26.4063 20C25.673 20 25.073 20.6 25.073 21.3333C25.073 22.0667 25.673 22.6667 26.4063 22.6667Z" fill="#4DAC27"/>
<path d="M4.66675 28.6665H25.6667C26.6366 28.6665 27.4152 27.9266 27.4152 27.005C27.4152 26.0835 26.6366 25.3436 25.6667 25.3436H15.0356H13.1642H15.5819H20.2088C21.0284 25.3436 21.6977 24.7076 21.6977 23.9288C21.6977 23.15 21.0284 22.514 20.2088 22.514H14.7214L14.6667 22.488C14.6667 21.2939 13.6559 20.3853 12.0441 20.3853H4.66675H7.6806" stroke="black" stroke-linecap="round" stroke-linejoin="round"/>
<path d="M12.7607 12.6665L14.1974 17.9998L16.0442 12.6665L18 17.9998L19.4274 12.6665" stroke="#4DAC27" stroke-linecap="round" stroke-linejoin="round"/>
<path d="M12.2226 14.6665H20" stroke="#4DAC27" stroke-linecap="round"/>
<path d="M10.6666 8.6665C7.33327 11.3332 5.33322 15.9998 5.64722 20" stroke="black" stroke-linecap="round" stroke-linejoin="round"/>
<path d="M20.9594 8.6665C23.5705 10.7554 25.3635 14.0715 25.8669 17.3332C25.9359 17.7797 25.9806 18.2253 26 18.6665" stroke="black" stroke-linecap="round" stroke-linejoin="round"/>
<path d="M21.1112 8.66683L23.3272 4.57454H23.3334C23.0865 4.46457 22.8643 4.29177 22.6667 4.04042C22.247 3.49059 21.6667 3.27066 21.1112 3.34921C20.71 3.41204 20.3149 3.64768 20.0063 4.04042C19.2655 4.98298 18.0742 4.98298 17.3334 4.04042C16.5927 3.09786 15.4013 3.09786 14.6606 4.04042C14.2902 4.5117 13.8149 4.74734 13.3334 4.74734C12.8519 4.74734 12.3705 4.5117 12.0001 4.04042C11.6297 3.56914 11.1482 3.3335 10.6667 3.3335C10.1853 3.3335 9.70379 3.56914 9.33341 4.04042C9.13588 4.28391 8.90749 4.46457 8.66675 4.57454L10.6667 8.66683" stroke="black" stroke-linecap="round" stroke-linejoin="round"/>
<path d="M10.6667 8.6665H20.6667" stroke="black" stroke-linecap="round"/>
</svg>
