<svg width="148" height="43" viewBox="0 0 148 43" fill="none" xmlns="http://www.w3.org/2000/svg">
<g clip-path="url(#clip0_17730_1628)">
<path d="M36.6635 26.3107C35.737 26.2746 34.8126 26.4246 33.9451 26.7518C33.0775 27.079 32.2843 27.5767 31.6123 28.2157C30.872 29.0372 30.3008 29.9966 29.9315 31.039C29.5622 32.0814 29.4019 33.1863 29.4598 34.2907C29.402 35.3948 29.5624 36.4996 29.9317 37.5417C30.3011 38.5839 30.8721 39.543 31.6123 40.3644C33.0076 41.6033 34.8088 42.2875 36.6748 42.2875C38.5408 42.2875 40.3419 41.6033 41.7373 40.3644C43.2128 38.6957 43.9757 36.5153 43.8623 34.2907C43.9761 32.0656 43.2132 29.8846 41.7373 28.2157C41.0608 27.577 40.2638 27.0796 39.3928 26.7525C38.5219 26.4254 37.5932 26.2752 36.6635 26.3107ZM39.5861 38.7007C39.2335 39.1318 38.7866 39.4763 38.28 39.7075C37.7733 39.9388 37.2203 40.0506 36.6635 40.0344C36.1097 40.0505 35.5597 39.9386 35.0562 39.7072C34.5528 39.4759 34.1095 39.1314 33.7611 38.7007C32.9111 37.3936 32.5112 35.8446 32.6223 34.2894C32.5143 32.7345 32.9139 31.1865 33.7611 29.8782C34.1107 29.4502 34.5547 29.109 35.0583 28.8813C35.5618 28.6536 36.1113 28.5456 36.6635 28.5657C37.2187 28.5459 37.7709 28.654 38.2777 28.8816C38.7844 29.1091 39.232 29.4501 39.5861 29.8782C40.4288 31.188 40.8236 32.736 40.711 34.2894C40.8268 35.8428 40.4317 37.3926 39.5861 38.7007Z" fill="#081D58"/>
<path d="M76.1176 28.2163C74.7155 26.9884 72.9151 26.3115 71.0514 26.3115C69.1876 26.3115 67.3873 26.9884 65.9851 28.2163C64.4988 29.8798 63.7304 32.0635 63.8476 34.2913C63.7332 36.5196 64.5042 38.7028 65.9926 40.365C67.3892 41.6044 69.1916 42.2889 71.0589 42.2889C72.9261 42.2889 74.7286 41.6044 76.1251 40.365C77.6031 38.6978 78.3663 36.5163 78.2501 34.2913C78.3672 32.0658 77.6039 29.8836 76.1251 28.2163M73.9751 38.7013C73.6137 39.1202 73.1662 39.4563 72.6632 39.6866C72.1602 39.917 71.6134 40.0363 71.0601 40.0363C70.5069 40.0363 69.9601 39.917 69.457 39.6866C68.954 39.4563 68.5066 39.1202 68.1451 38.7013C67.2993 37.393 66.9014 35.8453 67.0114 34.2913C66.9046 32.7371 67.3022 31.1901 68.1451 29.88C68.5105 29.4675 68.9592 29.1372 69.4618 28.9109C69.9643 28.6847 70.5091 28.5677 71.0601 28.5677C71.6112 28.5677 72.156 28.6847 72.6585 28.9109C73.161 29.1372 73.6098 29.4675 73.9751 29.88C74.817 31.1907 75.2117 32.7388 75.1001 34.2925C75.2152 35.8458 74.8202 37.3942 73.9751 38.7025" fill="#081D58"/>
<path d="M22.3407 41.9237C22.2082 41.7807 22.1058 41.6125 22.0394 41.4291C21.9731 41.2457 21.9442 41.0509 21.9545 40.8562V35.3112L27.1245 26.6475H23.5845C23.8345 26.8975 23.8645 27.31 23.5545 27.7975L20.7557 32.6475C18.402 28.3862 18.4045 28.265 17.9782 27.4875C17.647 26.9025 17.3645 26.6475 16.7357 26.6475H13.9482C14.3143 27.039 14.6255 27.4784 14.8732 27.9537L18.9982 35.2712V40.855C19.0087 41.0496 18.98 41.2444 18.9139 41.4277C18.8478 41.6111 18.7455 41.7793 18.6132 41.9225L22.3407 41.9237Z" fill="#081D58"/>
<path d="M48.792 41.9238C48.9254 41.7813 49.0287 41.6132 49.0955 41.4298C49.1623 41.2463 49.1913 41.0513 49.1807 40.8563V27.71C49.192 27.5152 49.1633 27.3201 49.0965 27.1368C49.0296 26.9534 48.926 26.7857 48.792 26.6438H53.8507C56.2757 26.6438 58.3932 27.8138 58.3932 30.0863C58.4071 30.6674 58.2707 31.2422 57.9972 31.7551C57.7237 32.268 57.3223 32.7016 56.832 33.0138C57.6492 33.2901 58.3593 33.8157 58.8622 34.5167C59.3652 35.2176 59.6357 36.0586 59.6357 36.9213C59.6367 37.6473 59.4712 38.3638 59.152 39.0158C58.8328 39.6678 58.3684 40.238 57.7945 40.6825C56.667 41.5472 55.2701 41.9855 53.8507 41.92L48.792 41.9238ZM52.142 32.4163C52.8725 32.4898 53.6101 32.4006 54.302 32.155C54.6177 32.0312 54.8872 31.8122 55.0731 31.5285C55.2589 31.2447 55.352 30.9103 55.3395 30.5713C55.3257 30.3278 55.2636 30.0895 55.1566 29.8703C55.0497 29.6511 54.9002 29.4555 54.7168 29.2947C54.5333 29.134 54.3197 29.0115 54.0884 28.9343C53.8571 28.857 53.6127 28.8267 53.3695 28.845C52.9546 28.8309 52.5401 28.8837 52.142 29.0013V32.4163ZM55.452 39.3513C55.8173 39.1101 56.1105 38.7745 56.3005 38.3801C56.4904 37.9858 56.57 37.5473 56.5307 37.1113C56.5136 36.7568 56.4238 36.4096 56.2668 36.0913C56.1099 35.773 55.8892 35.4903 55.6184 35.2609C55.3476 35.0315 55.0325 34.8602 54.6927 34.7577C54.3529 34.6552 53.9957 34.6237 53.6432 34.665C53.1418 34.66 52.6407 34.6893 52.1432 34.7525V39.6488C53.2471 39.9444 54.4201 39.8386 55.4532 39.35" fill="#081D58"/>
<path d="M0.636797 40.8563C0.647147 41.0512 0.618172 41.2461 0.551598 41.4295C0.485025 41.6129 0.382216 41.781 0.249297 41.9238H3.9843C3.85126 41.7811 3.74837 41.613 3.68179 41.4296C3.61521 41.2461 3.5863 41.0512 3.5968 40.8563V34.8876L7.93305 41.0851C8.05239 41.339 8.24208 41.5533 8.4796 41.7027C8.71712 41.852 8.99249 41.9301 9.27305 41.9276H12.273C11.8642 41.5355 11.503 41.0967 11.1968 40.6201L6.2968 33.6776L11.2968 26.6476H7.62305C7.81305 26.8976 7.83805 27.2088 7.4793 27.8101L3.6043 33.4076V27.7101C3.59315 27.5152 3.62175 27.32 3.68837 27.1365C3.75498 26.953 3.85822 26.785 3.9918 26.6426H0.248047C0.381506 26.785 0.484662 26.9531 0.551269 27.1366C0.617876 27.3201 0.646547 27.5152 0.635547 27.7101L0.636797 40.8563Z" fill="#081D58"/>
<path d="M83.043 5.72497C82.6959 5.40474 82.2881 5.15738 81.8437 4.99753C81.3994 4.83768 80.9274 4.76859 80.4559 4.79435C79.9843 4.8201 79.5227 4.94019 79.0984 5.14748C78.6741 5.35478 78.2957 5.64509 77.9855 6.00122C76.2193 7.85872 74.8455 8.54997 73.2093 8.47997C70.9243 8.38122 69.7968 6.61497 68.623 4.38497C68.1637 3.3219 67.4077 2.41375 66.4456 1.76928C65.4834 1.12482 64.3559 0.771353 63.198 0.751221C62.392 0.756797 61.5956 0.926701 60.8575 1.25054C60.1194 1.57439 59.4551 2.04537 58.9052 2.63469C58.3553 3.22401 57.9314 3.91929 57.6593 4.67803C57.3873 5.43676 57.2729 6.243 57.323 7.04747C57.3679 9.02963 57.9589 10.961 59.031 12.6288C60.1031 14.2966 61.6147 15.6361 63.3993 16.5C65.3899 17.4989 67.5799 18.0368 69.8068 18.0737C69.6562 19.4263 69.3629 20.7591 68.9318 22.05H73.1355C72.6865 20.7174 72.3876 19.3389 72.2443 17.94C78.4018 17.1412 81.3243 14.3412 82.9268 11.6762C83.6041 10.6416 83.9841 9.44085 84.0255 8.20497C84.0382 7.7473 83.9586 7.29176 83.7915 6.86549C83.6244 6.43921 83.3733 6.05092 83.053 5.72372M63.2268 8.92122C62.8012 8.95083 62.3764 8.8534 62.0063 8.64129C61.6362 8.42918 61.3374 8.11194 61.1479 7.72979C60.9583 7.34765 60.8865 6.91782 60.9415 6.4948C60.9965 6.07178 61.176 5.67464 61.457 5.35372C61.738 5.0328 62.1081 4.80258 62.5201 4.69222C62.9322 4.58188 63.3677 4.59638 63.7715 4.73389C64.1754 4.8714 64.5292 5.12573 64.7883 5.46463C65.0474 5.80353 65.2 6.21173 65.2268 6.63747C65.2628 7.20515 65.0727 7.76402 64.6979 8.19195C64.3231 8.61987 63.7942 8.88206 63.2268 8.92122Z" fill="#45B035"/>
<path d="M140.741 32.3992H138.419V39.3492H133.984V41.1692H147.757V39.3492H140.747L140.741 32.3992Z" fill="#081D58"/>
<path d="M143.826 37.5825H145.34C145.907 34.6675 146.31 31.0237 146.545 28.5824C146.676 27.2649 146.682 26.575 145.498 26.575H135.153V28.3937H143.826V37.5825Z" fill="#081D58"/>
<path d="M120.627 32.5517H130.695V26.5129H119.185V31.1092C119.157 31.3054 119.174 31.5056 119.236 31.6939C119.298 31.8823 119.403 32.0535 119.543 32.194C119.683 32.3346 119.854 32.4405 120.042 32.5035C120.23 32.5664 120.43 32.5847 120.627 32.5567M128.105 30.7329H121.777V28.3317H128.105V30.7329Z" fill="#081D58"/>
<path d="M122.091 36.8169H119.503V40.4006C119.474 40.5963 119.491 40.796 119.552 40.984C119.614 41.1719 119.719 41.3429 119.858 41.4832C119.997 41.6236 120.168 41.7294 120.355 41.7923C120.543 41.8553 120.742 41.8735 120.938 41.8456H130.724V40.0256H122.089L122.091 36.8169Z" fill="#081D58"/>
<path d="M117.89 35.6374H123.905V38.4724H126.493V35.6374H131.975V33.8174H117.89V35.6374Z" fill="#081D58"/>
<path d="M94.0093 32.8911H91.6893V39.3486H90.108V32.8911H87.7855V39.3486H84.6455V41.1699H98.983V39.3486H94.0043L94.0093 32.8911Z" fill="#081D58"/>
<path d="M95.3166 37.5825H96.8291C97.3978 34.6675 97.7978 31.0237 98.0353 28.5824C98.1603 27.2649 98.1741 26.575 96.9878 26.575H86.1953V28.3937H95.3203L95.3166 37.5825Z" fill="#081D58"/>
<path d="M109.733 36.2419H107.144V39.3494H101.221V41.1694H115.571V39.3482H109.733V36.2419Z" fill="#081D58"/>
<path d="M104.675 35.2626H112.112C112.308 35.2904 112.508 35.2723 112.696 35.2094C112.884 35.1466 113.054 35.0409 113.194 34.9007C113.334 34.7604 113.44 34.5895 113.502 34.4015C113.564 34.2135 113.582 34.0136 113.553 33.8176V26.4238H110.96V29.4238H105.825V26.4238H103.231V33.8176C103.203 34.0138 103.22 34.214 103.283 34.4022C103.345 34.5905 103.451 34.7615 103.591 34.9018C103.731 35.0421 103.902 35.1477 104.09 35.2104C104.278 35.273 104.478 35.2909 104.675 35.2626ZM110.961 31.2363V33.6976H105.826V31.2363H110.961Z" fill="#081D58"/>
</g>
<defs>
<clipPath id="clip0_17730_1628">
<rect width="148" height="43" fill="white"/>
</clipPath>
</defs>
</svg>
