<svg width="33" height="32" viewBox="0 0 33 32" fill="none" xmlns="http://www.w3.org/2000/svg">
<path d="M7.92812 4H24.2816C24.897 4 25.3946 4.50193 25.3946 5.12273V7.15687H6.81519V5.12273C6.81519 4.50193 7.31273 4 7.92812 4Z" stroke="black" stroke-linecap="round" stroke-linejoin="round"/>
<path d="M26.0751 17.2745V27.9999H6.42212V17.248" stroke="black" stroke-linecap="round" stroke-linejoin="round"/>
<path d="M15.4845 20.4844H10.4829V28.0001H15.4845V20.4844Z" stroke="black" stroke-linecap="round" stroke-linejoin="round"/>
<path d="M4.25 28H28.25" stroke="black" stroke-linecap="round" stroke-linejoin="round"/>
<path d="M22.2139 19.4937H19.5953C19.0585 19.4937 18.6133 19.9427 18.6133 20.4843C18.6133 21.0259 19.0585 21.4749 19.5953 21.4749H22.2139C22.7508 21.4749 23.1959 21.0259 23.1959 20.4843C23.1959 19.9427 22.7508 19.4937 22.2139 19.4937Z" fill="#4DAC27"/>
<path d="M6.97293 7.11719L4.39355 12.0176V14.7782C4.39355 15.9141 5.71598 16.8387 7.35264 16.8387C8.9893 16.8387 10.3117 15.9141 10.3117 14.7782C10.3117 15.9141 11.6341 16.8387 13.2708 16.8387C14.9075 16.8387 16.2299 15.9141 16.2299 14.7782C16.2299 15.9141 17.5523 16.8387 19.189 16.8387C20.8256 16.8387 22.1481 15.9141 22.1481 14.7782C22.1481 15.9141 23.4705 16.8387 25.1071 16.8387C26.7438 16.8387 28.0662 15.9141 28.0662 14.7782V12.0308L25.4868 7.17002L6.92056 7.11719H6.97293Z" stroke="black" stroke-linejoin="round"/>
<path d="M22.1741 14.8446V12.8765" stroke="black" stroke-linecap="round" stroke-linejoin="round"/>
<path d="M16.2561 14.8446V12.8765" stroke="black" stroke-linecap="round" stroke-linejoin="round"/>
<path d="M10.3252 14.8446V12.8765" stroke="black" stroke-linecap="round" stroke-linejoin="round"/>
</svg>
