<svg width="33" height="32" viewBox="0 0 33 32" fill="none" xmlns="http://www.w3.org/2000/svg">
<path d="M29.3766 15.9932C29.3766 17.0637 27.9218 17.9284 27.661 18.9165C27.3865 19.9459 28.21 21.4144 27.6885 22.3065C27.1669 23.2123 25.4651 23.2397 24.7377 23.9809C23.9966 24.722 23.9691 26.4101 23.0633 26.9316C22.1712 27.4532 20.689 26.6297 19.6734 26.9042C18.6852 27.1649 17.8206 28.6197 16.7501 28.6197C15.6795 28.6197 14.8149 27.1649 13.8267 26.9042C12.7974 26.6297 11.3289 27.4532 10.4368 26.9316C9.53098 26.4101 9.50353 24.7083 8.76241 23.9809C8.02129 23.2397 6.33318 23.2123 5.81165 22.3065C5.29012 21.4144 6.11358 19.9321 5.8391 18.9165C5.57833 17.9284 4.12354 17.0637 4.12354 15.9932C4.12354 14.9227 5.57833 14.0581 5.8391 13.0699C6.11358 12.0406 5.29012 10.5721 5.81165 9.67996C6.33318 8.77415 8.03501 8.7467 8.76241 8.00557C9.50353 7.26445 9.53098 5.57634 10.4368 5.05481C11.3289 4.53328 12.8111 5.35675 13.8267 5.08226C14.8149 4.82149 15.6795 3.3667 16.7501 3.3667C17.8206 3.3667 18.6852 4.82149 19.6734 5.08226C20.7027 5.35675 22.1712 4.53328 23.0633 5.05481C23.9691 5.57634 23.9966 7.27818 24.7377 8.00557C25.4788 8.7467 27.1669 8.77415 27.6885 9.67996C28.21 10.5721 27.3865 12.0543 27.661 13.0699C27.9218 14.0581 29.3766 14.9227 29.3766 15.9932Z" stroke="black" stroke-miterlimit="10"/>
<path d="M19.1443 12.8884C19.4087 12.3793 19.1934 12.1257 18.8704 12.0349C18.5281 11.935 18.107 12.0988 17.8426 12.6159L14.3661 19.105C14.1017 19.6142 14.3266 19.8778 14.6603 19.9686C14.8792 20.0054 15.1048 19.9669 15.2957 19.8601C15.4865 19.7533 15.6297 19.5855 15.6987 19.3876L19.1443 12.8884ZM20.2883 19.9926C20.5238 20.0142 20.7615 19.9877 20.985 19.915C21.2085 19.8422 21.4125 19.7249 21.5829 19.5712C21.7532 19.4174 21.886 19.2308 21.9719 19.0244C22.0578 18.8179 22.0948 18.5964 22.0804 18.3753V17.4768C22.0937 17.2559 22.0559 17.0349 21.9697 16.829C21.8834 16.623 21.7506 16.4369 21.5804 16.2835C21.4103 16.13 21.2067 16.0128 20.9837 15.9398C20.7607 15.8667 20.5235 15.8397 20.2883 15.8605C20.0525 15.8395 19.8146 15.8664 19.5909 15.9393C19.3672 16.0121 19.1629 16.1293 18.992 16.2828C18.821 16.4363 18.6873 16.6225 18.6001 16.8287C18.5129 17.0349 18.4742 17.2563 18.4866 17.4778V18.3763C18.4734 18.5979 18.5116 18.8196 18.5986 19.026C18.6856 19.2325 18.8192 19.4189 18.9904 19.5725C19.1616 19.726 19.3662 19.8431 19.5902 19.9156C19.8143 19.9881 20.0524 20.0144 20.2883 19.9926ZM20.2883 18.7946C20.2312 18.7959 20.1745 18.7861 20.1217 18.7658C20.0688 18.7455 20.0211 18.7152 19.9815 18.6767C19.9419 18.6382 19.9113 18.5924 19.8916 18.5422C19.8719 18.4921 19.8636 18.4386 19.8672 18.3852V17.4678C19.8646 17.4146 19.8735 17.3616 19.8936 17.3118C19.9136 17.262 19.9443 17.2166 19.9837 17.1783C20.0231 17.14 20.0704 17.1096 20.1228 17.089C20.1752 17.0684 20.2315 17.058 20.2883 17.0585C20.3446 17.0582 20.4003 17.0688 20.4521 17.0896C20.5038 17.1104 20.5505 17.141 20.5891 17.1793C20.6276 17.2177 20.6574 17.2632 20.6764 17.3128C20.6955 17.3624 20.7034 17.4152 20.6998 17.4678V18.3852C20.7043 18.438 20.6969 18.491 20.6781 18.5409C20.6594 18.5908 20.6296 18.6365 20.5909 18.675C20.5521 18.7135 20.5051 18.7439 20.453 18.7643C20.4009 18.7847 20.3448 18.7957 20.2883 18.7946ZM13.2211 16.141C13.4566 16.1626 13.6943 16.1362 13.9178 16.0634C14.1413 15.9907 14.3453 15.8734 14.5157 15.7196C14.6861 15.5658 14.8188 15.3793 14.9047 15.1728C14.9906 14.9663 15.0276 14.7449 15.0132 14.5237V13.6252C15.0269 13.4042 14.9893 13.183 14.9032 12.9768C14.817 12.7706 14.6843 12.5843 14.5141 12.4306C14.3439 12.2769 14.1403 12.1594 13.9171 12.0863C13.6939 12.0132 13.4565 11.9861 13.2211 12.0069C12.9853 11.9859 12.7475 12.0128 12.5238 12.0857C12.3001 12.1586 12.0958 12.2757 11.9248 12.4292C11.7538 12.5827 11.6202 12.7689 11.5329 12.9751C11.4457 13.1813 11.407 13.4027 11.4194 13.6242V14.5227C11.4059 14.7445 11.4439 14.9664 11.5307 15.1731C11.6176 15.3798 11.7512 15.5665 11.9224 15.7203C12.0936 15.8741 12.2983 15.9913 12.5225 16.0639C12.7467 16.1365 12.985 16.1628 13.2211 16.141ZM13.2211 14.943C13.164 14.9444 13.1073 14.9346 13.0545 14.9143C13.0017 14.894 12.954 14.8636 12.9143 14.8251C12.8747 14.7866 12.8441 14.7408 12.8244 14.6907C12.8048 14.6405 12.7964 14.587 12.8 14.5337V13.6162C12.7974 13.5631 12.8064 13.51 12.8264 13.4602C12.8464 13.4105 12.8771 13.365 12.9165 13.3267C12.9559 13.2884 13.0033 13.258 13.0556 13.2374C13.108 13.2168 13.1643 13.2064 13.2211 13.2069C13.2774 13.2067 13.3332 13.2173 13.3849 13.2381C13.4367 13.2589 13.4833 13.2894 13.5219 13.3278C13.5605 13.3662 13.5902 13.4116 13.6093 13.4612C13.6283 13.5108 13.6363 13.5636 13.6326 13.6162V14.5337C13.6369 14.5863 13.6295 14.6393 13.6106 14.6891C13.5918 14.7388 13.562 14.7844 13.5233 14.8228C13.4845 14.8611 13.4376 14.8915 13.3856 14.9118C13.3335 14.9322 13.2775 14.9421 13.2211 14.941V14.943Z" fill="#4DAC27"/>
</svg>
