<svg width="33" height="32" viewBox="0 0 33 32" fill="none" xmlns="http://www.w3.org/2000/svg">
<path d="M26.4722 10.5494C27.4033 12.2405 27.9336 14.1917 27.9336 16.26C27.9336 22.777 22.683 28.0453 16.2168 28.0453C9.75057 28.0453 4.5 22.777 4.5 16.26C4.5 9.7429 9.75057 4.47461 16.2168 4.47461C18.4282 4.47461 20.4974 5.099 22.2692 6.16567" stroke="black" stroke-miterlimit="10" stroke-linecap="round"/>
<path d="M17.5898 16.2928C17.5898 15.5595 16.9898 14.9595 16.2564 14.9595C15.5231 14.9595 14.9231 15.5595 14.9231 16.2928C14.9231 17.0261 15.5231 17.6261 16.2564 17.6261C16.9898 17.6261 17.5898 17.0261 17.5898 16.2928Z" fill="#4DAC27"/>
<path d="M26.4325 8.19496L24.5185 8.05187L24.3762 6.12667L27.8162 2.6665V4.35756C27.8292 4.55268 27.9844 4.70878 28.1784 4.72179H29.8596L26.4195 8.18195L26.4325 8.19496Z" stroke="black" stroke-linecap="round" stroke-linejoin="round"/>
<path d="M24.5316 8.06494L18.5051 14.1267" stroke="black" stroke-linecap="round" stroke-linejoin="round"/>
<path d="M20.7421 15.0765C20.8456 15.4407 20.8714 15.7789 20.8714 16.2603C20.8714 18.8359 18.7893 20.9302 16.2287 20.9302C13.6681 20.9302 11.5859 18.8359 11.5859 16.2603C11.5859 13.6846 13.6681 11.5903 16.2287 11.5903C16.7848 11.5903 17.2245 11.6554 17.6771 11.8245" stroke="black" stroke-miterlimit="10" stroke-linecap="round"/>
<path d="M23.4202 12.553C23.9763 13.6977 24.3125 14.7383 24.3125 16.2603C24.3125 20.7611 20.6914 24.4034 16.2168 24.4034C11.7422 24.4034 8.12109 20.7611 8.12109 16.2603C8.12109 11.7595 11.7422 8.11719 16.2168 8.11719C17.6911 8.11719 18.8938 8.40337 20.0577 9.06678" stroke="black" stroke-miterlimit="10" stroke-linecap="round"/>
</svg>
